<svg width="178" height="48" viewBox="0 0 178 48" fill="none" xmlns="http://www.w3.org/2000/svg">
<g id="finna-protocol 1" clip-path="url(#clip0_113_976)">
<path id="Vector" fill-rule="evenodd" clip-rule="evenodd" d="M24.512 47.7474C30.8102 47.7474 36.8504 45.2455 41.3039 40.792C45.7574 36.3385 48.2594 30.2982 48.2594 24.0001C48.2594 17.7019 45.7574 11.6616 41.3039 7.20813C36.8504 2.75463 30.8102 0.252686 24.512 0.252686C18.2138 0.252686 12.1736 2.75463 7.72009 7.20813C3.2666 11.6616 0.764648 17.7019 0.764648 24.0001C0.764648 30.2982 3.2666 36.3385 7.72009 40.792C12.1736 45.2455 18.2138 47.7474 24.512 47.7474ZM19.8383 36.1264L13.0173 34.358V11.8737L23.2489 14.5264V31.7053L19.8383 30.8211V36.1264ZM32.7225 36.1264L25.9015 34.358V11.8737L36.0068 14.5264V31.7053L32.7225 30.8211V36.1264Z" fill="url(#paint0_linear_113_976)"/>
<path id="Vector_2" d="M63.291 19.7053V13.2632H73.6489V9.85268H63.291V5.93689H74.0278V2.52637H59.5015V19.7053H63.291ZM79.0804 5.55795V2.52637H75.1647V5.55795H78.9541H79.0804ZM79.0804 19.7053V6.8211H75.1647V19.7053H78.9541H79.0804ZM84.3857 19.7053V13.1369C84.3857 10.9895 85.2699 9.979 87.6699 9.979C90.0699 9.979 90.9541 10.8632 90.9541 13.0106V19.7053H94.7436V11.6211C94.7436 8.84216 93.1015 6.56847 89.5647 6.56847C86.1541 6.56847 84.6383 8.58953 84.2594 10.7369H84.1331V6.8211H80.3436V19.7053H84.1331H84.3857ZM100.049 19.7053V13.1369C100.049 10.9895 100.933 9.979 103.333 9.979C105.733 9.979 106.617 10.8632 106.617 13.0106V19.7053H110.407V11.6211C110.407 8.84216 108.765 6.56847 105.354 6.56847C101.817 6.56847 100.301 8.58953 100.049 10.7369H99.7962V6.8211H96.1331V19.7053H99.9225H100.049ZM115.712 19.9579C118.617 19.9579 120.512 18.6948 121.017 16.6737H121.27V19.7053H124.933V12.1264C124.933 8.71584 122.786 6.56847 118.617 6.56847C114.323 6.56847 111.67 8.71584 111.67 12.0001H115.459C115.459 10.4843 116.344 9.979 118.238 9.979C120.259 9.979 121.017 10.3579 121.017 12.1264V12.5053L115.586 13.1369C112.807 13.3895 111.417 14.6527 111.417 16.5474C111.417 18.6948 113.059 19.9579 115.838 19.9579H115.712ZM115.207 16.1685C115.207 15.6632 115.712 15.4106 116.596 15.2843L121.017 14.779C121.017 16.5474 119.501 17.3053 116.975 17.3053C115.712 17.3053 115.207 16.9264 115.207 16.2948V16.1685ZM63.6699 44.3369V39.0316H69.4804C73.9015 39.0316 76.6804 36.5053 76.6804 32.0843C76.6804 27.6632 74.0278 25.2632 69.4804 25.2632H59.3752V44.2106H63.6699V44.3369ZM68.9752 29.179C71.3752 29.179 72.512 29.8106 72.512 32.0843C72.512 34.6106 71.2489 35.2422 68.9752 35.2422H63.6699V29.0527H68.9752V29.179ZM81.9857 44.3369V36.0001C81.9857 34.2316 82.6173 33.4737 84.512 33.4737C86.2804 33.4737 86.912 34.1053 86.912 35.6211V37.1369H91.2068V34.7369C91.2068 31.9579 89.9436 29.6843 86.6594 29.6843C83.7541 29.6843 82.2383 31.579 81.8594 33.8527H81.6068V30.0632H77.8173V44.2106H82.112L81.9857 44.3369ZM99.7962 44.5895C104.723 44.5895 108.007 41.6843 108.007 37.1369C108.007 32.5895 104.723 29.8106 99.7962 29.8106C94.8699 29.8106 91.5857 32.5895 91.5857 37.1369C91.5857 41.6843 94.8699 44.7158 99.7962 44.7158V44.5895ZM99.7962 40.8001C96.891 40.8001 95.8804 39.6632 95.8804 37.1369C95.8804 34.6106 96.891 33.4737 99.7962 33.4737C102.701 33.4737 103.586 34.7369 103.586 37.2632C103.586 39.7895 102.701 40.8001 99.7962 40.8001ZM119.249 44.3369V40.5474H116.723C115.08 40.5474 114.575 40.1685 114.575 38.6527V33.6001H119.249V30.0632H114.449V27.2843H110.154V30.0632H108.133V33.6001H110.407V39.1579C110.407 42.8211 112.428 44.3369 115.838 44.3369H119.375H119.249ZM127.838 44.5895C132.765 44.5895 136.049 41.6843 136.049 37.1369C136.049 32.5895 132.765 29.8106 127.838 29.8106C123.038 29.8106 119.754 32.5895 119.754 37.1369C119.754 41.6843 123.038 44.7158 127.838 44.7158V44.5895ZM127.838 40.8001C124.933 40.8001 124.049 39.6632 124.049 37.1369C124.049 34.6106 124.933 33.4737 127.838 33.4737C130.744 33.4737 131.754 34.7369 131.754 37.2632C131.754 39.7895 130.744 40.8001 127.965 40.8001H127.838ZM144.765 44.5895C149.438 44.5895 152.596 42.0632 152.596 38.4001V38.0211H148.301V38.2737C148.301 40.1685 147.038 40.8001 144.765 40.8001C142.238 40.8001 140.975 39.7895 140.975 37.1369C140.975 34.6106 142.238 33.6001 144.765 33.6001C146.912 33.6001 148.301 34.2316 148.301 36.1264V36.2527H152.596V35.8737C152.596 32.0843 149.438 29.8106 144.765 29.8106C139.965 29.8106 136.807 32.5895 136.807 37.1369C136.807 41.6843 139.965 44.7158 144.765 44.7158V44.5895ZM161.438 44.5895C166.365 44.5895 169.649 41.6843 169.649 37.1369C169.649 32.5895 166.365 29.8106 161.438 29.8106C156.512 29.8106 153.228 32.5895 153.228 37.1369C153.228 41.6843 156.512 44.7158 161.438 44.7158V44.5895ZM161.438 40.8001C158.533 40.8001 157.649 39.6632 157.649 37.1369C157.649 34.6106 158.533 33.4737 161.438 33.4737C164.344 33.4737 165.354 34.7369 165.354 37.2632C165.354 39.7895 164.344 40.8001 161.565 40.8001H161.438ZM175.08 44.3369V25.2632H170.786V44.2106H175.08V44.3369Z" fill="#101828"/>
</g>
<defs>
<linearGradient id="paint0_linear_113_976" x1="24.512" y1="0.252686" x2="24.512" y2="47.7474" gradientUnits="userSpaceOnUse">
<stop stop-color="#0085FF"/>
<stop offset="0.5" stop-color="#27C9B5"/>
<stop offset="1" stop-color="#C9FF55"/>
</linearGradient>
<clipPath id="clip0_113_976">
<rect width="176.842" height="48" fill="white" transform="translate(0.764648)"/>
</clipPath>
</defs>
</svg>
