<svg width="224" height="48" viewBox="0 0 224 48" fill="none" xmlns="http://www.w3.org/2000/svg">
<g id="evolve 1" clip-path="url(#clip0_113_971)">
<path id="Vector" d="M24.2245 47.3661C9.27812 47.2546 0.42071 38.2602 0.712946 23.5073C0.995298 9.38823 10.1506 0.516702 24.3233 0.632467C39.0494 0.756702 48.3049 9.92894 48.0339 24.1271C47.7515 38.9266 39.0099 47.472 24.2245 47.3661ZM6.28236 15.1835C7.60377 15.3769 8.14589 14.6838 8.79106 14.1783C11.3819 12.055 14.4121 10.5337 17.6626 9.72423C20.9097 8.91529 24.2979 8.83906 27.5788 9.50117C34.9158 10.8155 39.1101 16.4809 37.4753 23.2348C36.1708 28.6052 28.2353 32.3012 22.2184 30.4151C21.0635 30.0536 20.2179 29.5539 20.2179 28.2946C20.2179 26.8348 21.24 26.1911 22.5275 26.0753C24.0692 25.9369 25.6334 26.0146 27.1807 25.9369C30.4179 25.776 32.6513 24.3106 33.1864 20.976C33.6508 18.0579 31.7322 15.0042 28.8438 13.9454C26.569 13.1919 24.159 12.9348 21.7765 13.1915C14.1515 13.7463 9.27812 17.2249 7.344 23.3845C6.46921 26.2386 6.45301 29.2869 7.29742 32.1501C8.14012 35.0101 9.80726 37.5582 12.0904 39.4758C19.9144 45.8005 34.8762 43.9652 40.8226 35.9181C41.376 35.1374 42.48 34.3765 41.6019 33.144C40.3426 33.1115 39.7511 34.1661 38.928 34.7704C33.0551 39.1101 26.5454 40.0701 19.5882 38.2772C12.9078 36.552 9.46024 30.5082 11.4875 24.4052C13.1958 19.2452 21.3402 15.6819 26.7713 17.7078C27.8767 18.1242 28.656 18.8174 28.5501 20.0499C28.4457 21.2809 27.5393 21.8965 26.3788 22.0023C24.9529 22.1365 23.5172 22.1252 22.0913 22.2028C18.0805 22.4245 15.9078 24.1609 15.5548 27.4024C15.2019 30.6424 17.4057 33.5054 20.8264 34.4711C24.6607 35.5807 28.368 34.8762 32.0922 33.8598C37.32 32.4282 40.608 29.0104 41.6852 23.8729C42.84 18.3671 41.7628 13.1351 37.3412 9.25129C28.6009 1.57694 10.7195 4.16894 6.28236 15.1835ZM73.2424 23.4551C73.2424 21.3402 72.5944 19.6744 71.3012 18.4574C70.0094 17.2376 68.3675 16.6165 66.3529 16.6165C64.2155 16.6165 62.4748 17.2885 61.1576 18.6551C59.8391 19.9976 59.1671 21.6904 59.1671 23.7529C59.1671 25.7675 59.8136 27.4574 61.0828 28.8254C62.3746 30.1934 64.2155 30.8894 66.6268 30.8894C68.9393 30.8894 70.9285 30.2682 72.5944 28.9991L71.0527 26.3393C69.8025 27.2001 68.3198 27.6596 66.8019 27.6565C64.8113 27.6565 63.5689 26.8108 63.096 25.0955H73.1167C73.1915 24.4743 73.2424 23.9266 73.2424 23.4551ZM66.3529 19.7746C67.9694 19.7746 69.1144 20.7445 69.4871 22.3101H63.072C63.4941 20.7191 64.7605 19.7746 66.3529 19.7746ZM80.9125 25.32L77.7558 16.9652H73.4541L79.3214 30.5661H82.3807L88.2734 16.9652H84.0212L80.9125 25.32ZM95.8588 30.9642C98.0231 30.9642 99.8132 30.2668 101.181 28.9002C102.548 27.5082 103.245 25.7915 103.245 23.7784C103.245 21.7638 102.548 20.0485 101.181 18.6805C99.8132 17.2885 98.0231 16.5911 95.8588 16.5911C93.696 16.5911 91.9313 17.2885 90.5633 18.6805C89.1953 20.0485 88.5247 21.7638 88.5247 23.7769C88.5247 25.7915 89.1953 27.5082 90.5633 28.9002C91.9313 30.2668 93.696 30.9642 95.8588 30.9642ZM99.3402 23.7529C99.3402 24.7722 98.993 25.6165 98.3209 26.3139C98.0019 26.6425 97.6191 26.9025 97.1959 27.0778C96.7728 27.253 96.3182 27.34 95.8602 27.3332C95.402 27.3402 94.9472 27.2533 94.5238 27.078C94.1004 26.9028 93.7173 26.6427 93.3981 26.3139C92.7261 25.6179 92.4028 24.7722 92.4028 23.7529C92.4028 22.7831 92.7275 21.9374 93.3981 21.2668C93.7125 20.93 94.0941 20.6629 94.5182 20.4829C94.9424 20.303 95.3996 20.2141 95.8602 20.2221C96.8301 20.2221 97.6504 20.5694 98.3209 21.2668C98.6501 21.5908 98.9101 21.9782 99.0853 22.4055C99.2605 22.8328 99.3472 23.2912 99.3402 23.7529ZM109.441 11.6682H105.538V30.5929H109.441V11.6682ZM118.552 25.32L115.393 16.9652H111.092L116.959 30.5661H120.018L125.911 16.9652H121.659L118.552 25.32ZM140.26 23.4551C140.26 21.3402 139.614 19.6744 138.32 18.4574C137.029 17.2376 135.387 16.6165 133.372 16.6165C131.235 16.6165 129.494 17.2885 128.177 18.6551C126.858 19.9976 126.186 21.6904 126.186 23.7529C126.186 25.7675 126.833 27.4574 128.102 28.8254C129.394 30.1934 131.235 30.8894 133.646 30.8894C135.959 30.8894 137.948 30.2682 139.614 28.9991L138.072 26.3393C136.822 27.2001 135.339 27.6596 133.821 27.6565C131.831 27.6565 130.588 26.8108 130.115 25.0955H140.136C140.211 24.4743 140.26 23.9266 140.26 23.4551ZM133.372 19.7746C134.989 19.7746 136.134 20.7445 136.506 22.3101H130.091C130.513 20.7191 131.78 19.7746 133.372 19.7746ZM155.252 30.8894C158.112 30.8894 160.523 29.472 161.716 27.2584L158.56 25.3948C157.988 26.5129 156.719 27.3092 155.352 27.3092C154.357 27.3092 153.536 26.9845 152.864 26.3139C152.218 25.6433 151.895 24.7722 151.895 23.7529C151.895 22.7591 152.218 21.9134 152.89 21.2414C153.56 20.5694 154.382 20.2221 155.401 20.2221C156.768 20.2221 157.838 20.8687 158.633 22.1619L161.742 20.496C160.622 18.0085 158.136 16.6165 155.327 16.6165C153.164 16.6165 151.423 17.2885 150.055 18.6311C148.687 19.9482 148.016 21.6649 148.016 23.7529C148.016 25.8424 148.687 27.5576 150.03 28.9002C151.374 30.2174 153.113 30.8894 155.252 30.8894ZM167.647 30.5915V24.3741C167.647 21.5901 168.915 20.3463 170.829 20.3463C171.401 20.3463 171.973 20.4452 172.544 20.6442L172.868 16.9158C172.328 16.7093 171.756 16.5994 171.178 16.5911C169.561 16.5911 168.343 17.3125 167.472 18.7299V16.9652H163.742V30.5915H167.647ZM187.489 23.4551C187.489 21.3402 186.843 19.6744 185.55 18.4574C184.258 17.2376 182.616 16.6165 180.601 16.6165C178.464 16.6165 176.723 17.2885 175.405 18.6551C174.088 19.9976 173.416 21.6904 173.416 23.7529C173.416 25.7675 174.062 27.4574 175.331 28.8254C176.623 30.1934 178.464 30.8894 180.875 30.8894C183.188 30.8894 185.177 30.2682 186.843 28.9991L185.301 26.3393C184.051 27.2003 182.568 27.6598 181.05 27.6565C179.06 27.6565 177.817 26.8108 177.344 25.0955H187.365C187.44 24.4743 187.489 23.9266 187.489 23.4551ZM180.601 19.7746C182.218 19.7746 183.363 20.7445 183.736 22.3101H177.32C177.743 20.7191 179.01 19.7746 180.601 19.7746ZM199.744 18.2823C198.675 17.1642 197.358 16.6165 195.816 16.6165C193.9 16.6165 192.309 17.3125 191.016 18.6805C189.748 20.0485 189.102 21.7383 189.102 23.7769C189.102 25.8424 189.748 27.5322 191.016 28.9002C192.309 30.2668 193.9 30.9388 195.816 30.9388C197.456 30.9388 198.799 30.3416 199.869 29.1233V30.5915H203.648V11.6682H199.744V18.2823ZM199.943 23.7529C199.943 24.7722 199.619 25.6433 198.949 26.3393C198.302 27.0353 197.482 27.384 196.463 27.384C195.442 27.384 194.622 27.0353 193.951 26.3393C193.304 25.6433 192.981 24.7722 192.981 23.7529C192.981 22.7591 193.304 21.9134 193.951 21.2174C194.622 20.52 195.442 20.1727 196.463 20.1727C197.482 20.1727 198.302 20.52 198.949 21.2174C199.619 21.9134 199.943 22.7576 199.943 23.7529ZM208.714 15.5718C210.006 15.5718 211.026 14.5779 211.026 13.2593C211.026 11.9421 210.006 10.9468 208.714 10.9468C207.395 10.9468 206.376 11.9421 206.376 13.2593C206.376 14.5779 207.395 15.5718 208.714 15.5718ZM210.628 16.9652H206.725V30.5915H210.628V16.9652ZM222.671 26.7106C221.801 27.1595 221.054 27.3826 220.433 27.3826C219.215 27.3826 218.617 26.6118 218.617 25.0715V20.1967H222.994V16.9638H218.617V12.1412H214.739V16.9652H212.551V20.1981H214.714V25.4442C214.714 29.0993 216.33 30.9388 219.587 30.9388C221.204 30.9388 222.596 30.5661 223.765 29.8193L222.671 26.7106Z" fill="#1363DF"/>
</g>
<defs>
<clipPath id="clip0_113_971">
<rect width="223.059" height="48" fill="white" transform="translate(0.705933)"/>
</clipPath>
</defs>
</svg>
