<svg width="171" height="48" viewBox="0 0 171 48" fill="none" xmlns="http://www.w3.org/2000/svg">
<g id="heala_logo 1" clip-path="url(#clip0_113_983)">
<path id="Vector" fill-rule="evenodd" clip-rule="evenodd" d="M12.3926 35.6451L12.7739 36.2664C12.8685 36.3831 12.9752 36.4895 13.092 36.584C13.5802 25.2096 22.7017 16.0036 34.2575 14.9877C32.7188 13.5324 29.3555 14.2129 23.8386 14.131C23.0897 11.0557 24.4269 5.29933 23.2888 3.68015C22.2074 2.14183 20.4621 2.60025 17.9557 2.59998C14.8738 2.59998 12.269 2.14727 12.1886 5.39434C12.1261 7.91046 12.4352 11.7734 12.1141 14.016C11.0499 14.4322 5.40769 14.0435 3.72618 14.1528C0.532884 14.3604 0.653343 16.936 0.656882 19.8236C0.658515 21.1487 0.412157 22.8554 0.997704 23.9687C2.68643 27.1787 7.79018 24.9156 12.0875 25.7648C12.6193 28.1686 11.6874 33.6294 12.3926 35.6451Z" fill="#3E5EA9"/>
<path id="Vector_2" fill-rule="evenodd" clip-rule="evenodd" d="M35.9503 17.2947C35.2911 16.0196 29.8854 17.3944 28.8773 17.7372C23.4813 19.5716 18.9605 23.7912 16.7872 29.3732C16.1183 31.092 14.9378 35.5046 15.3999 36.7599C15.7995 36.9103 18.3517 37.0704 18.9126 36.9489C19.3334 36.6822 19.1642 33.915 20.254 31.2606C21.1197 29.1508 22.0055 27.5669 23.8023 25.7081C25.5905 23.8599 27.3174 22.7556 29.3843 21.9111C30.9746 21.2617 33.4991 20.8111 34.8364 20.9159C35.0152 21.3736 34.8601 22.4936 34.9303 23.0276C34.3172 23.2863 33.278 23.2366 32.5319 23.3665C27.0201 24.3311 22.6255 28.6955 21.5965 34.3851C21.0071 37.6495 21.2762 37.0795 23.2371 37.2005C23.8851 37.2404 24.5324 37.3625 25.0797 37.1944C25.4132 36.3474 25.3326 35.0805 25.8245 33.7598C26.2685 32.5655 26.8664 31.4642 27.8617 30.3682C29.5332 28.5274 32.8682 26.8414 34.6582 27.3541C34.7111 27.9726 34.6798 29.0585 34.5369 29.4825C32.8575 29.9186 31.3307 29.8232 29.4126 31.9295C28.0839 33.39 27.0933 36.1258 27.4359 37.4438C29.569 37.6982 29.2204 37.5769 31.0932 37.4959C31.6131 35.1982 32.553 33.7651 34.5199 33.5093C34.6364 35.1741 34.7386 36.3089 34.8949 37.0886C35.3389 39.3036 35.5044 36.1568 35.3906 32.5703C35.3777 32.1612 35.4175 31.6053 35.2053 31.6592C32.8105 32.2752 30.6229 33.1744 30.193 36.4777C30.1625 36.713 29.5644 36.5967 28.2957 36.5057C28.5784 33.7813 30.3292 31.489 33.0058 30.706C33.9514 30.429 34.6001 30.6143 35.297 30.3542C35.582 29.7694 35.6971 26.9921 35.3793 26.4614C34.6166 26.2112 32.8852 26.4725 31.8057 26.7949C29.0741 27.6093 26.6886 29.7279 25.4214 32.4203C24.4255 34.5353 24.609 35.5632 24.2992 36.3002C24.2611 36.3056 24.1773 36.2822 24.1847 36.3135C24.1915 36.3437 24.097 36.3236 24.0715 36.3247L23.2763 36.3078C22.8593 36.2826 22.6658 36.2955 22.2752 36.1861C22.1209 35.1383 22.8063 32.887 23.364 31.6023C25.1656 27.4501 28.9445 24.6819 33.2715 24.1705C34.0027 24.0842 34.9172 24.1666 35.5098 23.9853C35.8577 23.425 35.9628 20.6851 35.6574 20.1227C34.714 19.6838 31.5095 20.2775 29.9164 20.7689C25.5412 22.1191 21.7388 25.7691 19.7851 30.1188C18.6852 32.5672 18.7279 33.7769 18.2994 36.0324L16.2367 35.9766C16.0265 34.4476 17.016 30.9304 17.8224 29.1152C20.8792 22.2361 27.3899 17.7447 34.4085 17.7102C35.063 17.707 35.6812 17.9934 35.9499 17.2942L35.9503 17.2947Z" fill="#92F8C9"/>
<path id="Vector_3" d="M45.9226 38.016C45.4361 38.016 45.0352 37.8585 44.7203 37.5436C44.4054 37.2286 44.2476 36.8278 44.2476 36.341V6.14803C44.2476 5.66127 44.4054 5.26041 44.7203 4.94546C45.0352 4.6305 45.4361 4.47302 45.9226 4.47302C46.4095 4.47302 46.8104 4.6305 47.1253 4.94546C47.4402 5.26041 47.5976 5.66127 47.5976 6.14803V19.5481H68.5567V6.14803C68.5567 5.66127 68.7142 5.26041 69.0291 4.94546C69.3443 4.6305 69.7448 4.47302 70.2317 4.47302C70.7187 4.47302 71.1196 4.6305 71.4344 4.94546C71.7493 5.26041 71.9068 5.66127 71.9068 6.14803V36.341C71.9068 36.8278 71.7493 37.2286 71.4344 37.5436C71.1196 37.8585 70.7187 38.016 70.2317 38.016C69.7448 38.016 69.3443 37.8585 69.0291 37.5436C68.7142 37.2286 68.5567 36.8278 68.5567 36.341V22.5545H47.5976V36.341C47.5976 36.8278 47.4402 37.2286 47.1253 37.5436C46.8104 37.8585 46.4095 38.016 45.9226 38.016ZM90.7074 38.2307C88.3884 38.2307 86.3267 37.7297 84.5231 36.7275C82.7478 35.6968 81.3447 34.2794 80.314 32.4756C79.3118 30.6718 78.8107 28.6102 78.8107 26.291C78.8107 23.9431 79.2834 21.8816 80.228 20.1064C81.2015 18.3025 82.5332 16.8852 84.2224 15.8544C85.9116 14.8237 87.8585 14.3083 90.0634 14.3083C92.2396 14.3083 94.1292 14.8094 95.7324 15.8115C97.3648 16.785 98.6243 18.145 99.5121 19.8916C100.4 21.6382 100.843 23.6282 100.843 25.8615C100.843 26.3196 100.7 26.6918 100.414 26.9782C100.128 27.2359 99.7556 27.3647 99.2975 27.3647H81.044V24.616H99.6408L97.7941 25.9474C97.8229 24.2867 97.5222 22.7978 96.8921 21.4807C96.2623 20.1636 95.3603 19.1329 94.1864 18.3884C93.041 17.644 91.6666 17.2717 90.0634 17.2717C88.4314 17.2717 86.9995 17.6583 85.7684 18.4314C84.5373 19.2045 83.578 20.2782 82.8911 21.6525C82.2325 22.9983 81.903 24.5444 81.903 26.291C81.903 28.0376 82.2751 29.5837 83.0197 30.9295C83.7927 32.2752 84.838 33.3346 86.1551 34.1076C87.4722 34.8808 88.9898 35.2673 90.7074 35.2673C91.7384 35.2673 92.7691 35.0955 93.7997 34.7519C94.8592 34.3797 95.704 33.9216 96.3338 33.3775C96.6486 33.1198 97.0069 32.991 97.4074 32.991C97.8083 32.9624 98.152 33.0626 98.4385 33.2916C98.8106 33.6352 98.9968 34.0075 98.9968 34.4083C99.0252 34.8092 98.8678 35.1527 98.5241 35.4391C97.5795 36.2408 96.3768 36.9137 94.9164 37.4577C93.4565 37.9731 92.0533 38.2307 90.7074 38.2307ZM115.95 38.2307C113.745 38.2307 111.769 37.7154 110.023 36.6846C108.276 35.6252 106.888 34.1935 105.857 32.3897C104.855 30.5859 104.354 28.553 104.354 26.291C104.354 24.0004 104.869 21.9532 105.9 20.1493C106.959 18.3455 108.391 16.9282 110.195 15.8974C111.998 14.838 114.031 14.3083 116.293 14.3083C118.555 14.3083 120.574 14.838 122.349 15.8974C124.153 16.9282 125.57 18.3455 126.601 20.1493C127.66 21.9532 128.204 24.0004 128.233 26.291L126.902 27.3218C126.902 29.3833 126.415 31.2444 125.441 32.9051C124.496 34.5372 123.194 35.8399 121.533 36.8134C119.901 37.7583 118.04 38.2307 115.95 38.2307ZM116.293 35.2243C117.954 35.2243 119.429 34.8378 120.717 34.0647C122.034 33.2916 123.065 32.2322 123.809 30.8865C124.582 29.5122 124.969 27.9803 124.969 26.291C124.969 24.573 124.582 23.0412 123.809 21.6955C123.065 20.3497 122.034 19.2904 120.717 18.5173C119.429 17.7156 117.954 17.3147 116.293 17.3147C114.661 17.3147 113.187 17.7156 111.87 18.5173C110.553 19.2904 109.507 20.3497 108.734 21.6955C107.961 23.0412 107.575 24.573 107.575 26.291C107.575 27.9803 107.961 29.5122 108.734 30.8865C109.507 32.2322 110.553 33.2916 111.87 34.0647C113.187 34.8378 114.661 35.2243 116.293 35.2243ZM126.558 38.016C126.071 38.016 125.671 37.8728 125.355 37.5865C125.04 37.2715 124.883 36.8707 124.883 36.384V29.0397L125.699 25.6467L128.233 26.291V36.384C128.233 36.8707 128.076 37.2715 127.761 37.5865C127.446 37.8728 127.045 38.016 126.558 38.016ZM139.733 38.016C138.588 38.016 137.557 37.701 136.641 37.0711C135.753 36.4412 135.051 35.5679 134.536 34.4513C134.049 33.3346 133.806 32.0461 133.806 30.5859V6.1051C133.806 5.61834 133.949 5.23181 134.235 4.94546C134.551 4.6305 134.951 4.47302 135.438 4.47302C135.925 4.47302 136.311 4.6305 136.598 4.94546C136.913 5.23181 137.07 5.61834 137.07 6.1051V30.5859C137.07 31.8171 137.313 32.8192 137.8 33.5923C138.316 34.3653 138.96 34.7519 139.733 34.7519H140.807C141.236 34.7519 141.58 34.9094 141.837 35.2243C142.095 35.5107 142.224 35.8972 142.224 36.384C142.224 36.8707 142.038 37.2715 141.666 37.5865C141.322 37.8728 140.864 38.016 140.291 38.016H139.733ZM155.836 38.2307C153.632 38.2307 151.656 37.7154 149.91 36.6846C148.163 35.6252 146.774 34.1935 145.744 32.3897C144.742 30.5859 144.24 28.553 144.24 26.291C144.24 24.0004 144.756 21.9532 145.787 20.1493C146.846 18.3455 148.278 16.9282 150.081 15.8974C151.885 14.838 153.918 14.3083 156.18 14.3083C158.442 14.3083 160.461 14.838 162.236 15.8974C164.04 16.9282 165.457 18.3455 166.488 20.1493C167.547 21.9532 168.091 24.0004 168.12 26.291L166.789 27.3218C166.789 29.3833 166.302 31.2444 165.328 32.9051C164.384 34.5372 163.081 35.8399 161.42 36.8134C159.788 37.7583 157.927 38.2307 155.836 38.2307ZM156.18 35.2243C157.841 35.2243 159.316 34.8378 160.604 34.0647C161.921 33.2916 162.952 32.2322 163.696 30.8865C164.469 29.5122 164.856 27.9803 164.856 26.291C164.856 24.573 164.469 23.0412 163.696 21.6955C162.952 20.3497 161.921 19.2904 160.604 18.5173C159.316 17.7156 157.841 17.3147 156.18 17.3147C154.548 17.3147 153.074 17.7156 151.756 18.5173C150.439 19.2904 149.395 20.3497 148.621 21.6955C147.848 23.0412 147.462 24.573 147.462 26.291C147.462 27.9803 147.848 29.5122 148.621 30.8865C149.395 32.2322 150.439 33.2916 151.756 34.0647C153.074 34.8378 154.548 35.2243 156.18 35.2243ZM166.445 38.016C165.958 38.016 165.557 37.8728 165.243 37.5865C164.927 37.2715 164.77 36.8707 164.77 36.384V29.0397L165.586 25.6467L168.12 26.291V36.384C168.12 36.8707 167.962 37.2715 167.648 37.5865C167.333 37.8728 166.932 38.016 166.445 38.016Z" fill="#3E5EA9"/>
</g>
<defs>
<clipPath id="clip0_113_983">
<rect width="170.112" height="48" fill="white" transform="translate(0.606812)"/>
</clipPath>
</defs>
</svg>
