<svg xmlns="http://www.w3.org/2000/svg" width="42" height="42" viewBox="0 0 42 42" fill="none">
  <g clip-path="url(#clip0_22_2119)">
    <path d="M-19 -9H61V51H-19V-9Z" fill="white"/>
    <path d="M-19 -9H61V9H-19V-9Z" fill="#000001"/>
    <path d="M-19 33H61V51H-19V33Z" fill="#006600"/>
    <path d="M10.275 38.8125L10.95 39.1875L28.4625 8.8125C29.475 8.5875 30.0375 7.6125 30.6 6.6375C30.975 5.9625 32.475 3.375 33.1125 0C31.3334 1.58096 29.8259 3.44322 28.65 5.5125C28.0875 6.4875 27.525 7.4625 27.7875 8.475L10.275 38.8125Z" fill="black" stroke="black" stroke-width="0.375"/>
    <path d="M10.275 38.8125L10.95 39.1875L28.4625 8.8125C29.475 8.5875 30.0375 7.6125 30.6 6.6375C30.975 5.9625 32.475 3.375 33.1125 0C31.3334 1.58096 29.8259 3.44322 28.65 5.5125C28.0875 6.4875 27.525 7.4625 27.7875 8.475L10.275 38.8125Z" fill="white"/>
    <path d="M31.725 38.8125L31.05 39.1875L13.5375 8.8125C12.525 8.5875 11.9625 7.6125 11.4 6.6375C11.025 5.9625 9.525 3.375 8.8875 0C10.6666 1.58096 12.1741 3.44322 13.35 5.5125C13.9125 6.4875 14.475 7.4625 14.2125 8.475L31.725 38.8125Z" fill="black" stroke="black" stroke-width="0.375"/>
    <path d="M31.725 38.8125L31.05 39.1875L13.5375 8.8125C12.525 8.5875 11.9625 7.6125 11.4 6.6375C11.025 5.9625 9.525 3.375 8.8875 0C10.6666 1.58096 12.1741 3.44322 13.35 5.5125C13.9125 6.4875 14.475 7.4625 14.2125 8.475L31.725 38.8125Z" fill="white"/>
    <path d="M61.0625 12H28.125C27 9 23.25 3 21 3C18.75 3 15 9 13.875 12H-19.025V30H13.875C15 33 18.75 39 21 39C23.25 39 27 33 28.125 30H61.0625V12Z" fill="#BB0000"/>
    <path d="M28.125 30C29.25 27 30 24 30 21C30 18 29.25 15 28.125 12C27 15 26.25 18 26.25 21C26.25 24 27 27 28.125 30Z" fill="black"/>
    <path d="M13.875 30C12.75 27 12 24 12 21C12 18 12.75 15 13.875 12C15 15 15.75 18 15.75 21C15.75 24 15 27 13.875 30Z" fill="black"/>
    <path d="M21 23.25C21.8284 23.25 22.5 22.2426 22.5 21C22.5 19.7574 21.8284 18.75 21 18.75C20.1716 18.75 19.5 19.7574 19.5 21C19.5 22.2426 20.1716 23.25 21 23.25Z" fill="white"/>
    <path d="M21.375 23.175C21.375 23.175 22.875 26.175 22.875 31.05C22.875 35.925 21.375 38.925 21.375 38.925V23.175Z" fill="white"/>
    <path d="M20.625 18.825C20.625 18.825 19.125 15.825 19.125 10.95C19.125 6.075 20.625 3.075 20.625 3.075V18.825Z" fill="white"/>
    <path d="M20.625 23.175C20.625 23.175 19.125 26.175 19.125 31.05C19.125 35.925 20.625 38.925 20.625 38.925V23.175Z" fill="white"/>
    <path d="M21.375 18.825C21.375 18.825 22.875 15.825 22.875 10.95C22.875 6.075 21.375 3.075 21.375 3.075V18.825Z" fill="white"/>
  </g>
  <defs>
    <clipPath id="clip0_22_2119">
      <rect width="80" height="60" fill="white" transform="translate(-19 -9)"/>
    </clipPath>
  </defs>
</svg>