<svg xmlns="http://www.w3.org/2000/svg" width="42" height="42" viewBox="0 0 42 42" fill="none">
  <g clip-path="url(#clip0_22_2087)">
    <mask id="mask0_22_2087" style="mask-type:luminance" maskUnits="userSpaceOnUse" x="-19" y="-9" width="80" height="60">
      <path d="M-18.9961 -9H60.9961V51H-18.9961V-9Z" fill="white"/>
    </mask>
    <g mask="url(#mask0_22_2087)">
      <path fill-rule="evenodd" clip-rule="evenodd" d="M-24 31.0078H66V41.0039H-24V31.0078Z" fill="#FFE700"/>
      <path fill-rule="evenodd" clip-rule="evenodd" d="M-24 21H66V30.9961H-24V21Z" fill="#000001"/>
      <path fill-rule="evenodd" clip-rule="evenodd" d="M-24 11.0039H66V21H-24V11.0039Z" fill="#DE3908"/>
      <path fill-rule="evenodd" clip-rule="evenodd" d="M-24 1.00781H66V11.0039H-24V1.00781Z" fill="#FFE700"/>
      <path fill-rule="evenodd" clip-rule="evenodd" d="M-24 -9H66V0.996094H-24V-9Z" fill="#000001"/>
      <path fill-rule="evenodd" clip-rule="evenodd" d="M30.3398 21C30.3398 23.4771 29.3558 25.8527 27.6043 27.6043C25.8527 29.3558 23.4771 30.3398 21 30.3398C18.5229 30.3398 16.1473 29.3558 14.3957 27.6043C12.6442 25.8527 11.6602 23.4771 11.6602 21C11.6602 18.5229 12.6442 16.1473 14.3957 14.3957C16.1473 12.6442 18.5229 11.6602 21 11.6602C23.4771 11.6602 25.8527 12.6442 27.6043 14.3957C29.3558 16.1473 30.3398 18.5229 30.3398 21Z" fill="#FFFDFF" stroke="black" stroke-width="0.117188"/>
      <path fill-rule="evenodd" clip-rule="evenodd" d="M19.3594 13.8398L18.75 12.7266C18.9844 12.4922 19.3711 12.3047 20.0039 12.3047L19.9336 13.5352L19.3594 13.8398Z" fill="#DE3108" stroke="black" stroke-width="0.117188"/>
      <path fill-rule="evenodd" clip-rule="evenodd" d="M19.9453 13.5352L20.0273 12.3047C20.0273 12.3047 21.2813 12.2344 21.9609 13.0547L21.293 14.0156L19.9453 13.5352Z" fill="#FFE700" stroke="black" stroke-width="0.117188"/>
      <path fill-rule="evenodd" clip-rule="evenodd" d="M21.3047 14.0039L21.9258 13.043C22.3359 13.4766 22.5117 13.7812 22.5703 14.25C22.582 14.2617 21.5977 14.4961 21.5977 14.4844L21.3047 14.0039Z" fill="#DE3108" stroke="black" stroke-width="0.117188"/>
      <path fill-rule="evenodd" clip-rule="evenodd" d="M19.6641 29.8008C19.6641 29.8008 20.8242 28.4766 23.0742 28.7578C22.7344 28.207 21.6328 28.2773 21.6328 28.2773C21.6328 28.2773 21.3047 25.6992 21.5625 25.5586C21.8203 25.418 22.9688 25.5703 22.9688 25.5703C23.1094 25.5703 23.3672 25.1719 23.1563 24.9141C22.957 24.6562 22.3594 23.6836 22.6055 23.4844C22.8516 23.2969 24.1758 23.6016 24.1758 23.6016L20.4258 18.7969C20.4258 18.7969 20.0391 16.9805 20.8125 16.1016C21.7383 15.3398 21.6328 14.5078 21.6094 14.5195C21.4805 13.6758 20.2031 13.0781 19.3359 13.8516C18.832 14.4609 19.1719 14.9297 19.1719 14.9297C19.1719 14.9297 17.8242 15.293 17.7774 15.5273C17.7188 15.7617 19.2891 15.4922 19.2891 15.4922L19.1367 16.5586C19.1367 16.5586 16.0899 19.3242 18.4336 21.7148L18.5039 21.6211C18.5039 21.6211 19.3242 22.6289 20.1797 22.8516C21 23.6719 20.918 23.5547 20.918 23.5547C20.918 23.5547 21.0703 24.8555 20.918 25.1133C20.7188 25.0547 18.6563 24.9727 18.3516 25.0898C18.0703 25.1836 17.0156 25.125 17.2734 26.8594L17.6602 25.9805C17.6602 25.9805 17.625 26.6016 17.8828 26.8242C17.8359 26.168 18.1289 25.7226 18.1289 25.7226C18.1289 25.7226 18.1758 26.4492 18.3399 26.543C18.5039 26.6601 18.5039 25.3711 19.3945 25.4883C20.2617 25.5937 20.9063 25.5586 20.9063 25.5586C20.9063 25.5586 21.1992 28.0664 21.1055 28.3008C20.4727 28.1484 18.9492 28.3594 18.8555 28.7461C19.7461 28.6875 20.1563 28.793 20.1563 28.793C20.1563 28.793 19.4414 29.4375 19.6641 29.8008Z" fill="black" stroke="black" stroke-width="0.105469" stroke-linecap="round" stroke-linejoin="round"/>
      <path fill-rule="evenodd" clip-rule="evenodd" d="M20.0156 16.1719C20.0156 16.1719 17.8008 18.6094 18.7617 20.4727C18.8086 20.2148 18.7851 20.0508 18.8203 20.0625C18.7617 20.0273 19.0898 20.2852 19.0664 20.2383C19.0664 20.0977 18.9726 19.8047 18.9726 19.8047L19.2656 19.8867L19.0898 19.5586L19.5234 19.6055C19.5234 19.6055 19.3711 19.207 19.4179 19.207L19.7695 19.2305C19.1367 18.1055 19.7344 17.168 20.0156 16.1602V16.1719Z" fill="#9CA69C" stroke="#9CA69C" stroke-width="0.105469" stroke-linecap="round" stroke-linejoin="round"/>
      <path fill-rule="evenodd" clip-rule="evenodd" d="M20.7891 14.0742C20.7891 14.0742 20.9062 14.918 20.4375 15.1523C20.3789 15.2109 20.0859 15.3047 20.1328 15.4805C20.1797 15.7148 20.3086 15.668 20.4844 15.6211C20.9648 15.5391 21.5273 14.5195 20.7891 14.0742Z" fill="#9CA69C" stroke="#9CA69C" stroke-width="0.117188"/>
      <path fill-rule="evenodd" clip-rule="evenodd" d="M19.9688 14.7891C19.9688 14.8357 19.9502 14.8804 19.9173 14.9134C19.8843 14.9463 19.8396 14.9648 19.793 14.9648C19.7463 14.9648 19.7016 14.9463 19.6687 14.9134C19.6357 14.8804 19.6172 14.8357 19.6172 14.7891C19.6172 14.7424 19.6357 14.6977 19.6687 14.6648C19.7016 14.6318 19.7463 14.6133 19.793 14.6133C19.8396 14.6133 19.8843 14.6318 19.9173 14.6648C19.9502 14.6977 19.9688 14.7424 19.9688 14.7891Z" fill="white"/>
      <path fill-rule="evenodd" clip-rule="evenodd" d="M19.2539 15.4922C19.1367 15.5977 18.5274 16.2305 19.1367 16.4648C19.7578 16.3008 19.5821 16.1836 19.7227 16.043C19.7227 15.75 19.418 15.6797 19.2539 15.5039V15.4922Z" fill="#DE3108" stroke="black" stroke-width="0.117188"/>
      <path fill-rule="evenodd" clip-rule="evenodd" d="M20.6016 21.5273C20.5664 21.668 20.4258 22.1836 20.6133 22.582C21.1523 22.3477 21.3984 22.418 21.5742 22.5352C21.1406 22.1836 20.9648 22.0312 20.6016 21.5273Z" fill="#9CA69C" stroke="#9CA69C" stroke-width="0.105469" stroke-linecap="round" stroke-linejoin="round"/>
      <path fill-rule="evenodd" clip-rule="evenodd" d="M21.5156 23.9414L21.5391 25.1367C21.5391 25.1367 21.9609 25.207 22.1484 25.1367C22.3359 25.0664 22.1484 24.3164 21.5156 23.9414Z" fill="white" stroke="white" stroke-width="0.105469" stroke-linecap="round" stroke-linejoin="round"/>
      <path fill-rule="evenodd" clip-rule="evenodd" d="M24.5156 24.0938C24.5156 24.0938 23.7539 22.2422 21.7968 21.7734C19.8398 21.3047 20.0976 19.2188 20.25 19.0898C20.3437 18.9141 20.4023 18.6328 20.9648 18.9023C21.5273 19.1719 24.1289 20.4727 24.5039 20.543C24.8789 20.6133 24.5507 24.1406 24.5273 24.0938H24.5156Z" fill="#9CA69C" stroke="black" stroke-width="0.117188"/>
      <path fill-rule="evenodd" clip-rule="evenodd" d="M22.664 21.7617C22.6289 21.7852 25.2773 23.332 24.4804 24.6563C25.2304 24.1523 24.9961 23.2852 24.9961 23.2852C24.9961 23.2852 25.6054 24.8906 24.1054 25.6758C24.2695 25.8164 24.375 25.793 24.375 25.793L24.1172 26.0391C24.1172 26.0391 24 26.2383 25.0078 25.7461C24.7383 25.9687 24.7148 26.1328 24.7148 26.1328C24.7148 26.1328 24.7851 26.3438 25.4414 25.7695C24.914 26.3438 24.7969 26.6367 24.7969 26.625C26.2383 26.5078 29.3672 21.8203 23.8125 20.4492L24.0586 20.707L22.664 21.7617Z" fill="#DE3108" stroke="black" stroke-width="0.105469" stroke-linejoin="round"/>
      <path fill-rule="evenodd" clip-rule="evenodd" d="M22.7812 21.3047C23.1328 21.5625 23.2617 21.6563 23.3086 21.7734C22.9804 21.7031 22.6875 21.7266 22.6875 21.7266C22.6875 21.7266 21.9726 21.0469 21.8437 20.9883C21.75 20.9883 21.1875 20.6367 21.1875 20.6367C20.9179 20.4961 20.6601 19.5469 21.6797 19.8164C22.0707 20.0204 22.4738 20.2004 22.8867 20.3555L24.1406 20.7539L24.8672 21.5625C24.8672 21.5625 23.5781 20.9297 23.414 20.918C23.7656 21.1992 23.9648 21.5977 23.9648 21.5977C23.5547 21.4805 23.2031 21.3633 22.7812 21.3047Z" fill="white" stroke="black" stroke-width="0.105469" stroke-linecap="round" stroke-linejoin="round"/>
      <path d="M17.7656 15.5977C17.7656 15.5977 18.9961 15.293 19.1484 15.3398" stroke="white" stroke-width="0.105469" stroke-linecap="round"/>
      <path fill-rule="evenodd" clip-rule="evenodd" d="M-24 41.0039H66V51H-24V41.0039Z" fill="#DE3908"/>
    </g>
  </g>
  <defs>
    <clipPath id="clip0_22_2087">
      <rect width="80" height="60" fill="white" transform="translate(-19 -9)"/>
    </clipPath>
  </defs>
</svg>